<svg xmlns="http://www.w3.org/2000/svg" width="512" height="512" viewBox="0 0 512 512" fill="none">
      <rect width="512" height="512" rx="132" fill="#111111"/>
      <rect x="88" y="88" width="336" height="336" rx="104" fill="url(#mark-gradient)"/>
      <path d="M192.188 206.062C192.188 175.875 216.75 151.312 246.938 151.312H322.938V196.25H257C246.937 196.25 238.75 204.437 238.75 214.5C238.75 224.563 246.937 232.75 257 232.75H294C337.562 232.75 373 268.188 373 311.75C373 355.375 337.562 390.75 294 390.75H188.625V345.812H283.938C301.438 345.812 315.688 331.562 315.688 314.062C315.688 296.562 301.438 282.312 283.938 282.312H246.938C216.75 282.312 192.188 257.75 192.188 227.562V206.062Z" fill="#FFFDF8"/>
      <path d="M334 151L380 130" stroke="#B79B67" stroke-width="18" stroke-linecap="round"/>
      <circle cx="382" cy="129" r="18" fill="#F2E8D5" stroke="#B79B67" stroke-width="6"/>
      <defs>
        <radialGradient id="mark-gradient" cx="0" cy="0" r="1" gradientUnits="userSpaceOnUse" gradientTransform="translate(196 128) rotate(47.3378) scale(363.724)">
          <stop stop-color="#303030"/>
          <stop offset="1" stop-color="#111111"/>
        </radialGradient>
      </defs>
    </svg>