<svg xmlns="http://www.w3.org/2000/svg" width="920" height="860" viewBox="0 0 920 860" fill="none">
      <defs>
        <radialGradient id="hero-halo" cx="0" cy="0" r="1" gradientUnits="userSpaceOnUse" gradientTransform="translate(470 220) rotate(90) scale(410 520)">
          <stop stop-color="rgba(183, 155, 103, 0.18)"/>
          <stop offset="1" stop-color="rgba(183, 155, 103, 0)"/>
        </radialGradient>
      </defs>
      <rect width="920" height="860" rx="80" fill="#F7F6F3"/>
      <circle cx="472" cy="250" r="320" fill="url(#hero-halo)"/>
      <g transform="translate(36 138) rotate(-10 180 360)">
        <g transform="scale(0.72)">
          <svg xmlns="http://www.w3.org/2000/svg" width="420" height="860" viewBox="0 0 420 860" fill="none">
      <rect x="18" y="18" width="384" height="824" rx="58" fill="#111111"/>
      <rect x="34" y="34" width="352" height="792" rx="44" fill="#F7F6F3"/>
      <rect x="154" y="52" width="112" height="12" rx="6" fill="rgba(17, 17, 17, 0.16)"/>
      <rect x="56" y="92" width="308" height="688" rx="34" fill="url(#screen-bg)"/>
      <g transform="translate(70 112)">
        
    <text x="0" y="16" font-family="Arial, Helvetica, sans-serif" font-size="12" font-weight="700" fill="rgba(17, 17, 17, 0.42)" letter-spacing="2.4">PLANS</text>
    <text x="0" y="50" font-family="Arial, Helvetica, sans-serif" font-size="30" font-weight="800" fill="#111111" letter-spacing="-0.8">Weekly split</text>
    <rect x="0" y="76" width="280" height="144" rx="32" fill="#FFFFFF" stroke="rgba(17, 17, 17, 0.08)"/>
    <text x="20" y="108" font-family="Arial, Helvetica, sans-serif" font-size="24" font-weight="800" fill="#111111">Mass Builder 4-Day</text>
    <text x="20" y="132" font-family="Arial, Helvetica, sans-serif" font-size="14" font-weight="600" fill="rgba(17, 17, 17, 0.56)">Mon • Tue • Thu • Sat</text>
    <rect x="20" y="150" width="84" height="40" rx="20" fill="#F7E0D8"/>
    <rect x="112" y="150" width="84" height="40" rx="20" fill="#DDECE7"/>
    <rect x="204" y="150" width="56" height="40" rx="20" fill="#F4DDDB"/>
    <text x="62" y="174" text-anchor="middle" font-family="Arial, Helvetica, sans-serif" font-size="12" font-weight="800" fill="#C9705A">PUSH</text>
    <text x="154" y="174" text-anchor="middle" font-family="Arial, Helvetica, sans-serif" font-size="12" font-weight="800" fill="#5C8578">PULL</text>
    <text x="232" y="174" text-anchor="middle" font-family="Arial, Helvetica, sans-serif" font-size="12" font-weight="800" fill="#B45C58">LEGS</text>

    <rect x="0" y="240" width="280" height="116" rx="30" fill="#FFFFFF" stroke="rgba(17, 17, 17, 0.08)"/>
    <text x="20" y="272" font-family="Arial, Helvetica, sans-serif" font-size="12" font-weight="700" fill="rgba(17, 17, 17, 0.42)" letter-spacing="1.8">THIS WEEK</text>
    <rect x="20" y="290" width="240" height="16" rx="8" fill="rgba(17, 17, 17, 0.08)"/>
    <rect x="20" y="290" width="164" height="16" rx="8" fill="#111111"/>
    <text x="20" y="334" font-family="Arial, Helvetica, sans-serif" font-size="14" font-weight="600" fill="rgba(17, 17, 17, 0.56)">12 completed sessions • auto reminders at 06:30</text>

    <rect x="0" y="376" width="280" height="132" rx="30" fill="#FFFFFF" stroke="rgba(17, 17, 17, 0.08)"/>
    <text x="20" y="408" font-family="Arial, Helvetica, sans-serif" font-size="12" font-weight="700" fill="rgba(17, 17, 17, 0.42)" letter-spacing="1.8">TEMPLATE STACK</text>
    <rect x="20" y="426" width="240" height="26" rx="13" fill="#F2E8D5"/>
    <rect x="20" y="462" width="190" height="26" rx="13" fill="#DDECE7"/>
    <text x="34" y="444" font-family="Arial, Helvetica, sans-serif" font-size="13" font-weight="800" fill="#8A6B3A">Beginner Reset 2-Day</text>
    <text x="34" y="480" font-family="Arial, Helvetica, sans-serif" font-size="13" font-weight="800" fill="#5C8578">Back and Core Focus</text>
  
      </g>
      <rect x="168" y="796" width="84" height="6" rx="3" fill="rgba(17, 17, 17, 0.16)"/>
      <defs>
        <linearGradient id="screen-bg" x1="210" y1="92" x2="210" y2="780" gradientUnits="userSpaceOnUse">
          <stop stop-color="#FFFFFF"/>
          <stop offset="1" stop-color="#F3F0E8"/>
        </linearGradient>
      </defs>
    </svg>
        </g>
      </g>
      <g transform="translate(280 40)">
        <g transform="scale(0.84)">
          <svg xmlns="http://www.w3.org/2000/svg" width="420" height="860" viewBox="0 0 420 860" fill="none">
      <rect x="18" y="18" width="384" height="824" rx="58" fill="#111111"/>
      <rect x="34" y="34" width="352" height="792" rx="44" fill="#F7F6F3"/>
      <rect x="154" y="52" width="112" height="12" rx="6" fill="rgba(17, 17, 17, 0.16)"/>
      <rect x="56" y="92" width="308" height="688" rx="34" fill="url(#screen-bg)"/>
      <g transform="translate(70 112)">
        
    <text x="0" y="16" font-family="Arial, Helvetica, sans-serif" font-size="12" font-weight="700" fill="rgba(17, 17, 17, 0.42)" letter-spacing="2.4">TODAY</text>
    <text x="0" y="50" font-family="Arial, Helvetica, sans-serif" font-size="30" font-weight="800" fill="#111111" letter-spacing="-0.8">SableFit rhythm</text>
    <rect x="0" y="76" width="280" height="94" rx="28" fill="#FFFFFF" stroke="rgba(17, 17, 17, 0.08)"/>
    <text x="20" y="106" font-family="Arial, Helvetica, sans-serif" font-size="12" font-weight="700" fill="rgba(17, 17, 17, 0.42)" letter-spacing="1.8">ACTIVE PLAN</text>
    <text x="20" y="136" font-family="Arial, Helvetica, sans-serif" font-size="24" font-weight="800" fill="#111111">Push Pull Legs</text>
    <text x="20" y="158" font-family="Arial, Helvetica, sans-serif" font-size="14" font-weight="600" fill="rgba(17, 17, 17, 0.56)">06:30 reminder • 3 days a week</text>

    <rect x="0" y="188" width="280" height="176" rx="32" fill="#FFFFFF" stroke="rgba(17, 17, 17, 0.08)"/>
    <text x="20" y="220" font-family="Arial, Helvetica, sans-serif" font-size="12" font-weight="700" fill="rgba(17, 17, 17, 0.42)" letter-spacing="1.8">NEXT SESSION</text>
    <text x="20" y="254" font-family="Arial, Helvetica, sans-serif" font-size="28" font-weight="800" fill="#111111" letter-spacing="-0.8">Upper Strength</text>
    <rect x="20" y="274" width="116" height="64" rx="20" fill="#DDECE7"/>
    <rect x="144" y="274" width="116" height="64" rx="20" fill="#F7E0D8"/>
    <text x="36" y="308" font-family="Arial, Helvetica, sans-serif" font-size="16" font-weight="800" fill="#5C8578">Pendlay Row</text>
    <text x="160" y="308" font-family="Arial, Helvetica, sans-serif" font-size="16" font-weight="800" fill="#C9705A">Close-Grip</text>
    <rect x="20" y="316" width="70" height="8" rx="4" fill="rgba(92, 133, 120, 0.32)"/>
    <rect x="144" y="316" width="76" height="8" rx="4" fill="rgba(201, 112, 90, 0.32)"/>

    <rect x="0" y="384" width="280" height="112" rx="30" fill="#FFFFFF" stroke="rgba(17, 17, 17, 0.08)"/>
    <text x="20" y="416" font-family="Arial, Helvetica, sans-serif" font-size="12" font-weight="700" fill="rgba(17, 17, 17, 0.42)" letter-spacing="1.8">REMINDERS</text>
    <rect x="20" y="432" width="108" height="36" rx="18" fill="rgba(17, 17, 17, 0.08)"/>
    <text x="74" y="455" text-anchor="middle" font-family="Arial, Helvetica, sans-serif" font-size="13" font-weight="800" fill="#111111">WEB PUSH ON</text>
    <text x="20" y="482" font-family="Arial, Helvetica, sans-serif" font-size="14" font-weight="600" fill="rgba(17, 17, 17, 0.56)">One-tap view for today, next up, and completion state.</text>

    <g transform="translate(44 540)">
      <rect x="0" y="0" width="36" height="36" rx="18" fill="#111111"/>
      <rect x="76" y="0" width="36" height="36" rx="18" fill="rgba(17, 17, 17, 0.08)"/>
      <rect x="152" y="0" width="36" height="36" rx="18" fill="rgba(17, 17, 17, 0.08)"/>
      <rect x="228" y="0" width="36" height="36" rx="18" fill="rgba(17, 17, 17, 0.08)"/>
    </g>
  
      </g>
      <rect x="168" y="796" width="84" height="6" rx="3" fill="rgba(17, 17, 17, 0.16)"/>
      <defs>
        <linearGradient id="screen-bg" x1="210" y1="92" x2="210" y2="780" gradientUnits="userSpaceOnUse">
          <stop stop-color="#FFFFFF"/>
          <stop offset="1" stop-color="#F3F0E8"/>
        </linearGradient>
      </defs>
    </svg>
        </g>
      </g>
      <g transform="translate(590 166) rotate(10 150 330)">
        <g transform="scale(0.66)">
          <svg xmlns="http://www.w3.org/2000/svg" width="420" height="860" viewBox="0 0 420 860" fill="none">
      <rect x="18" y="18" width="384" height="824" rx="58" fill="#111111"/>
      <rect x="34" y="34" width="352" height="792" rx="44" fill="#F7F6F3"/>
      <rect x="154" y="52" width="112" height="12" rx="6" fill="rgba(17, 17, 17, 0.16)"/>
      <rect x="56" y="92" width="308" height="688" rx="34" fill="url(#screen-bg)"/>
      <g transform="translate(70 112)">
        
    <text x="0" y="16" font-family="Arial, Helvetica, sans-serif" font-size="12" font-weight="700" fill="rgba(17, 17, 17, 0.42)" letter-spacing="2.4">LIBRARY</text>
    <text x="0" y="50" font-family="Arial, Helvetica, sans-serif" font-size="30" font-weight="800" fill="#111111" letter-spacing="-0.8">Visual cards</text>
    <rect x="0" y="78" width="280" height="44" rx="22" fill="#FFFFFF" stroke="rgba(17, 17, 17, 0.08)"/>
    <text x="20" y="105" font-family="Arial, Helvetica, sans-serif" font-size="15" font-weight="700" fill="rgba(17, 17, 17, 0.42)">Search exercise</text>
    <rect x="0" y="138" width="86" height="34" rx="17" fill="rgba(17, 17, 17, 0.08)"/>
    <rect x="96" y="138" width="72" height="34" rx="17" fill="#DDECE7"/>
    <rect x="178" y="138" width="102" height="34" rx="17" fill="#F2E8D5"/>
    <text x="43" y="160" text-anchor="middle" font-family="Arial, Helvetica, sans-serif" font-size="12" font-weight="800" fill="#111111">ALL</text>
    <text x="132" y="160" text-anchor="middle" font-family="Arial, Helvetica, sans-serif" font-size="12" font-weight="800" fill="#5C8578">BACK</text>
    <text x="229" y="160" text-anchor="middle" font-family="Arial, Helvetica, sans-serif" font-size="12" font-weight="800" fill="#8A6B3A">DUMBBELL</text>
    <rect x="0" y="192" width="132" height="168" rx="28" fill="#FFFFFF" stroke="rgba(17, 17, 17, 0.08)"/>
    <rect x="148" y="192" width="132" height="168" rx="28" fill="#FFFFFF" stroke="rgba(17, 17, 17, 0.08)"/>
    <rect x="12" y="206" width="108" height="98" rx="24" fill="#DDECE7"/>
    <rect x="160" y="206" width="108" height="98" rx="24" fill="#F7E0D8"/>
    <text x="18" y="326" font-family="Arial, Helvetica, sans-serif" font-size="14" font-weight="800" fill="#111111">Chest Supported Row</text>
    <text x="166" y="326" font-family="Arial, Helvetica, sans-serif" font-size="14" font-weight="800" fill="#111111">Flat Dumbbell Press</text>
    <text x="18" y="344" font-family="Arial, Helvetica, sans-serif" font-size="12" font-weight="700" fill="rgba(17, 17, 17, 0.42)">Back focus</text>
    <text x="166" y="344" font-family="Arial, Helvetica, sans-serif" font-size="12" font-weight="700" fill="rgba(17, 17, 17, 0.42)">Chest focus</text>
  
      </g>
      <rect x="168" y="796" width="84" height="6" rx="3" fill="rgba(17, 17, 17, 0.16)"/>
      <defs>
        <linearGradient id="screen-bg" x1="210" y1="92" x2="210" y2="780" gradientUnits="userSpaceOnUse">
          <stop stop-color="#FFFFFF"/>
          <stop offset="1" stop-color="#F3F0E8"/>
        </linearGradient>
      </defs>
    </svg>
        </g>
      </g>
    </svg>