<svg xmlns="http://www.w3.org/2000/svg" width="420" height="860" viewBox="0 0 420 860" fill="none">
      <rect x="18" y="18" width="384" height="824" rx="58" fill="#111111"/>
      <rect x="34" y="34" width="352" height="792" rx="44" fill="#F7F6F3"/>
      <rect x="154" y="52" width="112" height="12" rx="6" fill="rgba(17, 17, 17, 0.16)"/>
      <rect x="56" y="92" width="308" height="688" rx="34" fill="url(#screen-bg)"/>
      <g transform="translate(70 112)">
        
    <text x="0" y="16" font-family="Arial, Helvetica, sans-serif" font-size="12" font-weight="700" fill="rgba(17, 17, 17, 0.42)" letter-spacing="2.4">TODAY</text>
    <text x="0" y="50" font-family="Arial, Helvetica, sans-serif" font-size="30" font-weight="800" fill="#111111" letter-spacing="-0.8">SableFit rhythm</text>
    <rect x="0" y="76" width="280" height="94" rx="28" fill="#FFFFFF" stroke="rgba(17, 17, 17, 0.08)"/>
    <text x="20" y="106" font-family="Arial, Helvetica, sans-serif" font-size="12" font-weight="700" fill="rgba(17, 17, 17, 0.42)" letter-spacing="1.8">ACTIVE PLAN</text>
    <text x="20" y="136" font-family="Arial, Helvetica, sans-serif" font-size="24" font-weight="800" fill="#111111">Push Pull Legs</text>
    <text x="20" y="158" font-family="Arial, Helvetica, sans-serif" font-size="14" font-weight="600" fill="rgba(17, 17, 17, 0.56)">06:30 reminder • 3 days a week</text>

    <rect x="0" y="188" width="280" height="176" rx="32" fill="#FFFFFF" stroke="rgba(17, 17, 17, 0.08)"/>
    <text x="20" y="220" font-family="Arial, Helvetica, sans-serif" font-size="12" font-weight="700" fill="rgba(17, 17, 17, 0.42)" letter-spacing="1.8">NEXT SESSION</text>
    <text x="20" y="254" font-family="Arial, Helvetica, sans-serif" font-size="28" font-weight="800" fill="#111111" letter-spacing="-0.8">Upper Strength</text>
    <rect x="20" y="274" width="116" height="64" rx="20" fill="#DDECE7"/>
    <rect x="144" y="274" width="116" height="64" rx="20" fill="#F7E0D8"/>
    <text x="36" y="308" font-family="Arial, Helvetica, sans-serif" font-size="16" font-weight="800" fill="#5C8578">Pendlay Row</text>
    <text x="160" y="308" font-family="Arial, Helvetica, sans-serif" font-size="16" font-weight="800" fill="#C9705A">Close-Grip</text>
    <rect x="20" y="316" width="70" height="8" rx="4" fill="rgba(92, 133, 120, 0.32)"/>
    <rect x="144" y="316" width="76" height="8" rx="4" fill="rgba(201, 112, 90, 0.32)"/>

    <rect x="0" y="384" width="280" height="112" rx="30" fill="#FFFFFF" stroke="rgba(17, 17, 17, 0.08)"/>
    <text x="20" y="416" font-family="Arial, Helvetica, sans-serif" font-size="12" font-weight="700" fill="rgba(17, 17, 17, 0.42)" letter-spacing="1.8">REMINDERS</text>
    <rect x="20" y="432" width="108" height="36" rx="18" fill="rgba(17, 17, 17, 0.08)"/>
    <text x="74" y="455" text-anchor="middle" font-family="Arial, Helvetica, sans-serif" font-size="13" font-weight="800" fill="#111111">WEB PUSH ON</text>
    <text x="20" y="482" font-family="Arial, Helvetica, sans-serif" font-size="14" font-weight="600" fill="rgba(17, 17, 17, 0.56)">One-tap view for today, next up, and completion state.</text>

    <g transform="translate(44 540)">
      <rect x="0" y="0" width="36" height="36" rx="18" fill="#111111"/>
      <rect x="76" y="0" width="36" height="36" rx="18" fill="rgba(17, 17, 17, 0.08)"/>
      <rect x="152" y="0" width="36" height="36" rx="18" fill="rgba(17, 17, 17, 0.08)"/>
      <rect x="228" y="0" width="36" height="36" rx="18" fill="rgba(17, 17, 17, 0.08)"/>
    </g>
  
      </g>
      <rect x="168" y="796" width="84" height="6" rx="3" fill="rgba(17, 17, 17, 0.16)"/>
      <defs>
        <linearGradient id="screen-bg" x1="210" y1="92" x2="210" y2="780" gradientUnits="userSpaceOnUse">
          <stop stop-color="#FFFFFF"/>
          <stop offset="1" stop-color="#F3F0E8"/>
        </linearGradient>
      </defs>
    </svg>